<svg width="96" height="30" viewBox="0 0 96 30" fill="none" xmlns="http://www.w3.org/2000/svg">
  <path fill-rule="evenodd" clip-rule="evenodd" d="M0 0H91.6217C93.3353 0 94.2554 2.01417 93.1335 3.30943L84.1417 13.6906C83.4907 14.4422 83.4907 15.5578 84.1417 16.3094L93.1335 26.6906C94.2554 27.9858 93.3353 30 91.6217 30H0V0Z" fill="url(#paint0_linear)"/>
  <path d="M9.28 10.328V21H11.952C12.768 21 14.096 20.856 14.944 19.96C15.456 19.416 15.648 18.808 15.648 18.04C15.648 17.384 15.52 16.648 14.944 16.04C14.416 15.496 13.76 15.32 13.568 15.272C13.808 15.16 14.128 14.952 14.368 14.536C14.624 14.12 14.688 13.688 14.688 13.272C14.688 12.392 14.416 11.704 13.84 11.16C13.136 10.504 12.272 10.328 10.896 10.328H9.28ZM10.912 11.864H11.472C11.936 11.864 12.4 11.912 12.768 12.264C13.104 12.584 13.152 12.968 13.152 13.288C13.152 13.656 13.104 14.152 12.736 14.504C12.352 14.872 11.808 14.92 11.408 14.92H10.912V11.864ZM10.912 16.264H11.936C12.512 16.264 13.168 16.312 13.616 16.744C13.888 17.016 14.048 17.432 14.048 17.864C14.048 18.344 13.84 18.792 13.52 19.048C13.104 19.384 12.368 19.464 11.904 19.464H10.912V16.264ZM22.4339 18.728C22.2899 18.984 22.0819 19.256 21.8099 19.464C21.4899 19.704 21.1699 19.8 20.7379 19.8C20.3539 19.8 19.9059 19.736 19.5379 19.368C19.2019 19.032 18.9939 18.488 18.9619 18.008H23.7939V17.816C23.7939 17.112 23.7139 15.864 22.8499 14.968C22.4499 14.552 21.7619 14.088 20.6899 14.088C19.7299 14.088 18.9939 14.44 18.4339 15C17.7299 15.72 17.3619 16.728 17.3619 17.768C17.3619 18.776 17.7139 19.704 18.3539 20.344C18.9939 20.984 19.7299 21.208 20.6259 21.208C21.3459 21.208 22.0659 21.048 22.6099 20.696C23.0419 20.424 23.4579 19.976 23.7459 19.464L22.4339 18.728ZM19.0739 16.728C19.1539 16.392 19.3299 16.072 19.5539 15.864C19.7619 15.656 20.1139 15.432 20.6579 15.432C21.1699 15.432 21.5059 15.624 21.7139 15.816C21.9539 16.04 22.1299 16.36 22.1939 16.728H19.0739ZM29.8446 15.272C29.6046 14.84 29.3006 14.584 29.0766 14.44C28.6926 14.184 28.3086 14.088 27.8286 14.088C26.9966 14.088 26.4846 14.408 26.1806 14.728C25.8286 15.096 25.6206 15.624 25.6206 16.168C25.6206 16.6 25.7486 16.968 26.1006 17.304C26.3566 17.56 26.7246 17.736 27.0286 17.88L27.6046 18.152C27.8606 18.264 28.0846 18.376 28.2766 18.568C28.4206 18.728 28.4846 18.888 28.4846 19.08C28.4846 19.272 28.3886 19.48 28.2606 19.608C28.1166 19.752 27.8606 19.832 27.6206 19.832C27.2526 19.832 27.0286 19.672 26.9326 19.576C26.7886 19.448 26.6446 19.16 26.5646 18.936L25.2846 19.544C25.4446 20.024 25.7646 20.488 26.1486 20.776C26.6286 21.144 27.1726 21.208 27.6046 21.208C28.3086 21.208 28.9646 21.032 29.4926 20.456C29.8606 20.056 30.0846 19.528 30.0846 18.92C30.0846 18.456 29.9566 18.04 29.5886 17.672C29.3326 17.4 28.9966 17.224 28.6446 17.048L27.8446 16.648C27.5086 16.472 27.4126 16.44 27.3166 16.376C27.1726 16.28 27.0926 16.168 27.0926 15.992C27.0926 15.848 27.1566 15.72 27.2366 15.64C27.3326 15.544 27.4926 15.464 27.7166 15.464C28.2126 15.464 28.5166 15.784 28.6766 16.04L29.8446 15.272ZM34.6142 15.704V14.264H33.4142V11.8H31.8462V14.264H31.1902V15.704H31.8462V21H33.4142V15.704H34.6142ZM46.2156 11.928C45.9916 11.48 45.6876 11.112 45.3996 10.856C45.0636 10.568 44.4076 10.136 43.2556 10.136C41.2556 10.136 40.1356 11.512 40.1356 12.952C40.1356 14.552 41.4316 15.288 42.3116 15.656L43.3356 16.088C44.0396 16.376 44.8716 16.824 44.8716 17.912C44.8716 18.984 44.1036 19.704 43.1116 19.704C42.4716 19.704 42.0236 19.448 41.7196 19.064C41.4636 18.728 41.2716 18.232 41.2716 17.704L39.6556 18.056C39.7196 18.792 39.9756 19.496 40.5516 20.136C41.0956 20.744 41.8316 21.208 43.0636 21.208C45.0636 21.208 46.5036 19.816 46.5036 17.784C46.5036 16.568 45.9596 15.448 43.9916 14.648L42.9196 14.216C41.8796 13.8 41.7676 13.24 41.7676 12.92C41.7676 12.232 42.2796 11.64 43.2716 11.64C43.7356 11.64 44.0876 11.752 44.4236 12.024C44.6636 12.232 44.8076 12.456 44.9036 12.696L46.2156 11.928ZM53.2776 18.728C53.1336 18.984 52.9256 19.256 52.6536 19.464C52.3336 19.704 52.0136 19.8 51.5816 19.8C51.1976 19.8 50.7496 19.736 50.3816 19.368C50.0456 19.032 49.8376 18.488 49.8056 18.008H54.6376V17.816C54.6376 17.112 54.5576 15.864 53.6936 14.968C53.2936 14.552 52.6056 14.088 51.5336 14.088C50.5736 14.088 49.8376 14.44 49.2776 15C48.5736 15.72 48.2056 16.728 48.2056 17.768C48.2056 18.776 48.5576 19.704 49.1976 20.344C49.8376 20.984 50.5736 21.208 51.4696 21.208C52.1896 21.208 52.9096 21.048 53.4536 20.696C53.8856 20.424 54.3016 19.976 54.5896 19.464L53.2776 18.728ZM49.9176 16.728C49.9976 16.392 50.1736 16.072 50.3976 15.864C50.6056 15.656 50.9576 15.432 51.5016 15.432C52.0136 15.432 52.3496 15.624 52.5576 15.816C52.7976 16.04 52.9736 16.36 53.0376 16.728H49.9176ZM56.5764 9.336V21H58.1444V9.336H56.5764ZM60.4233 9.336V21H61.9913V9.336H60.4233ZM68.9901 18.728C68.8461 18.984 68.6381 19.256 68.3661 19.464C68.0461 19.704 67.7261 19.8 67.2941 19.8C66.9101 19.8 66.4621 19.736 66.0941 19.368C65.7581 19.032 65.5501 18.488 65.5181 18.008H70.3501V17.816C70.3501 17.112 70.2701 15.864 69.4061 14.968C69.0061 14.552 68.3181 14.088 67.2461 14.088C66.2861 14.088 65.5501 14.44 64.9901 15C64.2861 15.72 63.9181 16.728 63.9181 17.768C63.9181 18.776 64.2701 19.704 64.9101 20.344C65.5501 20.984 66.2861 21.208 67.1821 21.208C67.9021 21.208 68.6221 21.048 69.1661 20.696C69.5981 20.424 70.0141 19.976 70.3021 19.464L68.9901 18.728ZM65.6301 16.728C65.7101 16.392 65.8861 16.072 66.1101 15.864C66.3181 15.656 66.6701 15.432 67.2141 15.432C67.7261 15.432 68.0621 15.624 68.2701 15.816C68.5101 16.04 68.6861 16.36 68.7501 16.728H65.6301ZM72.2889 21H73.8569V17.512C73.8569 17.064 73.8569 16.424 74.2889 15.96C74.5929 15.64 74.9289 15.592 75.2649 15.592C75.4249 15.592 75.7129 15.608 76.0649 15.832L76.7049 14.408C76.2729 14.152 75.8569 14.088 75.4729 14.088C75.1209 14.088 74.8169 14.136 74.5129 14.312C74.2889 14.44 74.0329 14.664 73.8569 14.872V14.264H72.2889V21Z" fill="white"/>
  <defs>
  <linearGradient id="paint0_linear" x1="0" y1="0" x2="0" y2="30" gradientUnits="userSpaceOnUse">
  <stop stop-color="#F3202F"/>
  <stop offset="1" stop-color="#A81B20"/>
  </linearGradient>
  </defs>
  </svg>