<svg width="123" height="30" viewBox="0 0 123 30" fill="none" xmlns="http://www.w3.org/2000/svg">
<path fill-rule="evenodd" clip-rule="evenodd" d="M0 0L120.622 0C122.335 0 123.255 2.01417 122.133 3.30943L113.142 13.6906C112.491 14.4422 112.491 15.5578 113.142 16.3094L122.133 26.6906C123.255 27.9858 122.335 30 120.622 30H0V0Z" fill="url(#paint0_linear)"/>
<path d="M9.28 10.328V21H14.048V19.464H10.912V10.328H9.28ZM15.5889 14.264V21H17.1569V14.264H15.5889ZM15.3649 11.48C15.3649 12.056 15.7969 12.488 16.3729 12.488C16.9489 12.488 17.3809 12.056 17.3809 11.48C17.3809 10.904 16.9489 10.472 16.3729 10.472C15.7969 10.472 15.3649 10.904 15.3649 11.48ZM19.4358 21H21.0038V17.528C21.0038 16.952 21.0358 16.376 21.3078 15.992C21.5158 15.704 21.8518 15.496 22.2358 15.496C22.7958 15.496 23.0358 15.832 23.1318 16.088C23.1958 16.232 23.2758 16.536 23.2758 17.288V21H24.8438V17.528C24.8438 16.952 24.8758 16.376 25.1478 15.992C25.3558 15.704 25.6918 15.496 26.0758 15.496C26.6358 15.496 26.8758 15.832 26.9718 16.088C27.0358 16.232 27.1158 16.536 27.1158 17.288V21H28.6838V16.84C28.6838 15.864 28.4598 15.368 28.3318 15.144C27.9478 14.472 27.2278 14.088 26.4118 14.088C25.8198 14.088 24.9718 14.28 24.4118 15.08C24.0278 14.424 23.3718 14.088 22.6678 14.088C22.1558 14.088 21.5318 14.248 21.0038 14.888V14.264H19.4358V21ZM30.9701 14.264V21H32.5381V14.264H30.9701ZM30.7461 11.48C30.7461 12.056 31.1781 12.488 31.7541 12.488C32.3301 12.488 32.7621 12.056 32.7621 11.48C32.7621 10.904 32.3301 10.472 31.7541 10.472C31.1781 10.472 30.7461 10.904 30.7461 11.48ZM37.633 15.704V14.264H36.433V11.8H34.865V14.264H34.209V15.704H34.865V21H36.433V15.704H37.633ZM43.712 18.728C43.568 18.984 43.36 19.256 43.088 19.464C42.768 19.704 42.448 19.8 42.016 19.8C41.632 19.8 41.184 19.736 40.816 19.368C40.48 19.032 40.272 18.488 40.24 18.008H45.072V17.816C45.072 17.112 44.992 15.864 44.128 14.968C43.728 14.552 43.04 14.088 41.968 14.088C41.008 14.088 40.272 14.44 39.712 15C39.008 15.72 38.64 16.728 38.64 17.768C38.64 18.776 38.992 19.704 39.632 20.344C40.272 20.984 41.008 21.208 41.904 21.208C42.624 21.208 43.344 21.048 43.888 20.696C44.32 20.424 44.736 19.976 45.024 19.464L43.712 18.728ZM40.352 16.728C40.432 16.392 40.608 16.072 40.832 15.864C41.04 15.656 41.392 15.432 41.936 15.432C42.448 15.432 42.784 15.624 42.992 15.816C43.232 16.04 43.408 16.36 43.472 16.728H40.352ZM51.9387 15.048C51.2987 14.216 50.4347 14.088 49.9387 14.088C48.1627 14.088 46.6587 15.432 46.6587 17.624C46.6587 19.48 47.8427 21.208 49.9227 21.208C50.4027 21.208 51.2507 21.096 51.9387 20.296V21H53.5067V9.336H51.9387V15.048ZM50.1307 15.496C51.1227 15.496 52.0347 16.2 52.0347 17.672C52.0347 19.08 51.1227 19.8 50.1307 19.8C48.9947 19.8 48.2587 18.824 48.2587 17.656C48.2587 16.456 48.9947 15.496 50.1307 15.496ZM66.0055 10.328H60.1175V21H66.0055V19.464H61.7495V16.104H65.8775V14.568H61.7495V11.864H66.0055V10.328ZM73.0575 15.048C72.4175 14.216 71.5535 14.088 71.0575 14.088C69.2815 14.088 67.7775 15.432 67.7775 17.624C67.7775 19.48 68.9615 21.208 71.0415 21.208C71.5215 21.208 72.3695 21.096 73.0575 20.296V21H74.6255V9.336H73.0575V15.048ZM71.2495 15.496C72.2415 15.496 73.1535 16.2 73.1535 17.672C73.1535 19.08 72.2415 19.8 71.2495 19.8C70.1135 19.8 69.3775 18.824 69.3775 17.656C69.3775 16.456 70.1135 15.496 71.2495 15.496ZM76.9139 14.264V21H78.4819V14.264H76.9139ZM76.6899 11.48C76.6899 12.056 77.1219 12.488 77.6979 12.488C78.2739 12.488 78.7059 12.056 78.7059 11.48C78.7059 10.904 78.2739 10.472 77.6979 10.472C77.1219 10.472 76.6899 10.904 76.6899 11.48ZM83.5768 15.704V14.264H82.3768V11.8H80.8088V14.264H80.1528V15.704H80.8088V21H82.3768V15.704H83.5768ZM84.9357 14.264V21H86.5037V14.264H84.9357ZM84.7117 11.48C84.7117 12.056 85.1437 12.488 85.7197 12.488C86.2957 12.488 86.7277 12.056 86.7277 11.48C86.7277 10.904 86.2957 10.472 85.7197 10.472C85.1437 10.472 84.7117 10.904 84.7117 11.48ZM92.0306 14.088C89.9986 14.088 88.4306 15.56 88.4306 17.64C88.4306 19.704 89.9986 21.208 92.0306 21.208C94.0626 21.208 95.6306 19.704 95.6306 17.64C95.6306 15.56 94.0626 14.088 92.0306 14.088ZM92.0306 19.8C90.7986 19.8 90.0306 18.952 90.0306 17.656C90.0306 16.12 91.0386 15.496 92.0306 15.496C93.0226 15.496 94.0306 16.12 94.0306 17.656C94.0306 18.952 93.2626 19.8 92.0306 19.8ZM97.551 21H99.119V17.768C99.119 15.592 99.839 15.496 100.543 15.496C101.135 15.496 101.775 15.544 101.775 17.256V21H103.343V16.872C103.343 15.832 103.183 15.368 102.927 15C102.719 14.712 102.191 14.088 100.943 14.088C100.559 14.088 99.791 14.136 99.119 14.888V14.264H97.551V21Z" fill="white"/>
<defs>
<linearGradient id="paint0_linear" x1="0" y1="0" x2="0" y2="30" gradientUnits="userSpaceOnUse">
<stop stop-color="#F3202F"/>
<stop offset="1" stop-color="#A81B20"/>
</linearGradient>
</defs>
</svg>
