<svg width="11" height="16" viewBox="0 0 11 16" fill="none" xmlns="http://www.w3.org/2000/svg">
<path fill-rule="evenodd" clip-rule="evenodd" d="M1.74035 16C2.02469 16.0004 2.29744 15.8874 2.49821 15.686L9.42638 8.75771C9.62734 8.55676 9.74023 8.2842 9.74023 8.00001C9.74023 7.71581 9.62734 7.44326 9.42638 7.2423L2.49821 0.313982C2.22751 0.0432267 1.83292 -0.0625439 1.46309 0.0365129C1.09326 0.13557 0.804367 0.424404 0.705237 0.794216C0.606108 1.16403 0.7118 1.55863 0.982501 1.82939L7.15297 8.00001L0.982501 14.1706C0.676057 14.4771 0.584412 14.9381 0.750296 15.3385C0.91618 15.7389 1.30693 16 1.74035 16L1.74035 16Z" fill="#F88822"/>
</svg>
