<svg width="17" height="18" viewBox="0 0 17 18" fill="none" xmlns="http://www.w3.org/2000/svg">
<path fill-rule="evenodd" clip-rule="evenodd" d="M16.6888 16.1925L12.9112 12.428C14.1303 11.1077 14.875 9.34582 14.875 7.41176C14.875 3.3207 11.5428 0 7.4375 0C3.33223 0 0 3.3207 0 7.41176C0 11.5028 3.33223 14.8235 7.4375 14.8235C8.83294 14.8235 10.1391 14.4398 11.2554 13.7726L15.1862 17.6899C15.6011 18.1034 16.2739 18.1034 16.6888 17.6899C17.1037 17.2764 17.1037 16.606 16.6888 16.1925ZM2.125 7.41176C2.125 4.49024 4.50583 2.11765 7.4375 2.11765C10.3692 2.11765 12.75 4.49024 12.75 7.41176C12.75 10.3333 10.3692 12.7059 7.4375 12.7059C4.50583 12.7059 2.125 10.3333 2.125 7.41176Z" fill="#F88822"/>
</svg>
